<svg id="群組_1_影像" data-name="群組 1 影像" xmlns="http://www.w3.org/2000/svg" xmlns:xlink="http://www.w3.org/1999/xlink" viewBox="0 0 1000 480"><defs><style>.cls-1{fill:url(#未命名漸層_4);}.cls-2{fill:#66bdfa;}</style><linearGradient id="未命名漸層_4" x1="119.13" y1="321.65" x2="119.13" y2="129.6" gradientUnits="userSpaceOnUse"><stop offset="0" stop-color="#65e6f0"/><stop offset="1" stop-color="#66a6ff"/></linearGradient></defs><path class="cls-1" d="M198.35,242.38V177.16c0-8.26-5.85-14.12-14.09-14.12-9.08,0-18.16,0-27.24,0-.81,0-1.07-.26-1.11-1a22.28,22.28,0,0,0-.61-3.53,37.08,37.08,0,0,0-73,3.52c-.11.83-.41,1-1.2,1q-13.77,0-27.54,0a13.53,13.53,0,0,0-13.7,13.72q0,65.57,0,131.12a13.53,13.53,0,0,0,13.77,13.76H184.57a14.15,14.15,0,0,0,3-.3,13.54,13.54,0,0,0,10.8-13.46Q198.37,275.13,198.35,242.38ZM90,160.5a27.79,27.79,0,0,1,.78-2.7,29.72,29.72,0,0,1,14.17-17,32.34,32.34,0,0,1,5.59-2.37c.41-.14.83-.25,1.25-.35a42.1,42.1,0,0,1,8.24-.74,28.29,28.29,0,0,1,9.46,1.88c.22.08.46,0,.65.16a29.51,29.51,0,0,1,14.12,11.86,28,28,0,0,1,3.7,8.93c.14.76.27,1.52.41,2.28.08.46-.09.68-.57.63a2.38,2.38,0,0,0-.38,0H90.64c-.29,0-.58,0-.87,0C89.52,162.14,90.09,161.35,90,160.5Zm78.26,84.14c-1.06,9-6,15.42-14.5,18.46s-16.36,1.34-22.85-5c-9.17-8.9-18.09-18-27.13-27.07a16,16,0,1,0-13.45,27.11,15.64,15.64,0,0,0,13.37-4.51c1.46-1.42,2.85-2.92,4.33-4.31a3,3,0,0,1,5.14,1.58,2.61,2.61,0,0,1-.61,2.45c-2.71,2.76-5.23,5.74-8.58,7.8A22.11,22.11,0,1,1,90,220.36a21.27,21.27,0,0,1,17.87,6.23c9.06,9,18,18,27,27a16,16,0,1,0,13.43-27.11,15.6,15.6,0,0,0-13.3,4.45c-1.42,1.37-2.78,2.8-4.18,4.18a3.08,3.08,0,1,1-4.31-4.34,70.33,70.33,0,0,1,6.24-6,21.07,21.07,0,0,1,12.49-4.57C159.43,220.26,169.75,231.62,168.22,244.64Z"/><path class="cls-2" d="M260.28,282.86H250.5V204.74h9.78Z"/><path class="cls-2" d="M337.32,282.86h-9.5l-40.41-68.1.12,5.15c.11,1.94.17,3.58.17,4.92v58h-7.9V204.74h12.25l37.77,63.67-.11-5.44c-.08-2.13-.11-4-.11-5.66V204.74h7.72Z"/><path class="cls-2" d="M366.63,282.86h-9.79V204.74h47.85v8.58H366.63V238h31.53v7.9H366.63Z"/><path class="cls-2" d="M426.15,282.86h-9.79V204.74h9.79Z"/><path class="cls-2" d="M503.19,282.86h-9.5l-40.41-68.1.12,5.15c.11,1.94.17,3.58.17,4.92v58h-7.9V204.74h12.25l37.77,63.67-.11-5.44c-.08-2.13-.11-4-.11-5.66V204.74h7.72Z"/><path class="cls-2" d="M532.5,282.86h-9.79V204.74h9.79Z"/><path class="cls-2" d="M575.6,282.86h-9.79V213.32H543.43v-8.58H598v8.58H575.6Z"/><path class="cls-2" d="M664.77,204.74,638.61,250v32.85h-9.79V250l-26.15-45.27h11.57L635,240.63l20.88-35.89Z"/><path class="cls-2" d="M694.13,262.2l8.82-2q5.31,16,23.06,16,9.27,0,14-3.94a13.06,13.06,0,0,0,4.69-10.54,10,10,0,0,0-3.57-8,19.92,19.92,0,0,0-8.27-4.19l-15.63-3.85a39.65,39.65,0,0,1-9.93-3.76,18.11,18.11,0,0,1-6.56-6.79A20.37,20.37,0,0,1,698,224.57,18.85,18.85,0,0,1,705.41,209q7.38-5.82,18.94-5.82,21.3,0,28,19.29l-8.87,2.64a15.71,15.71,0,0,0-7.27-10.39A22.86,22.86,0,0,0,724,211.15a19.89,19.89,0,0,0-11.42,3.39,10.92,10.92,0,0,0-5,9.6q0,8.69,12.69,11.73l14.61,3.43q20,4.81,20,21.58a21.65,21.65,0,0,1-7.53,16.86q-7.53,6.72-21.21,6.73Q701.91,284.47,694.13,262.2Z"/><path class="cls-2" d="M825.26,282.86h-9.79v-37.2H779.24v37.2h-9.79V204.74h9.79v32.34h36.23V204.74h9.79Z"/><path class="cls-2" d="M871.73,284.47q-15,0-23.46-11.72T839.85,244q0-17.76,8.82-29.33a29.39,29.39,0,0,1,46.59-.2Q904,225.87,904,243.17q0,16.61-8.49,29T871.73,284.47Zm.23-8q10.24,0,16-9.34t5.78-24.06q0-15.12-6-23.54t-15.88-8.42q-10,0-15.92,9.11t-5.89,23.83q0,14.37,5.95,23.4T872,276.51Z"/><path class="cls-2" d="M928.51,282.86h-9.79V204.74h27.71q13,0,19.17,7.07a23.78,23.78,0,0,1,6.18,16.11,22.31,22.31,0,0,1-6.72,16.65q-6.73,6.59-17.6,6.59h-19Zm0-39.83h18q6.93,0,11.16-4.15a14.64,14.64,0,0,0,4.24-11,15.92,15.92,0,0,0-3.78-10.42q-3.78-4.58-10.93-4.58H928.51Z"/></svg>