<svg id="群組_1_影像" data-name="群組 1 影像" xmlns="http://www.w3.org/2000/svg" xmlns:xlink="http://www.w3.org/1999/xlink" viewBox="0 0 480 480"><defs><style>.cls-1{fill:url(#未命名漸層_4);}.cls-2{fill:#66bdfa;}</style><linearGradient id="未命名漸層_4" x1="240.48" y1="389.63" x2="240.48" y2="30.57" gradientUnits="userSpaceOnUse"><stop offset="0" stop-color="#65e6f0"/><stop offset="1" stop-color="#66a6ff"/></linearGradient></defs><path class="cls-1" d="M388.6,241.43V119.5c0-15.44-10.94-26.41-26.34-26.41-17,0-34,0-50.94,0-1.51,0-2-.47-2.07-1.87a42.56,42.56,0,0,0-1.13-6.6c-7.91-36.11-44.38-60-80.6-52.81a69.28,69.28,0,0,0-55.79,59.4c-.2,1.56-.77,1.88-2.25,1.87Q143.74,93,118,93.1a25.3,25.3,0,0,0-25.62,25.66q0,122.56,0,245.14a25.3,25.3,0,0,0,25.75,25.72H362.83a26,26,0,0,0,5.58-.55,25.34,25.34,0,0,0,20.19-25.17Q388.62,302.66,388.6,241.43ZM186,88.35a51.91,51.91,0,0,1,1.44-5,55.63,55.63,0,0,1,26.5-31.87A61.67,61.67,0,0,1,224.36,47a22.93,22.93,0,0,1,2.33-.65A79.6,79.6,0,0,1,242.1,45a53.19,53.19,0,0,1,17.69,3.51c.4.16.85.05,1.21.3A55.14,55.14,0,0,1,287.4,71a52.42,52.42,0,0,1,6.92,16.68c.25,1.43.5,2.85.76,4.27.15.85-.16,1.26-1.06,1.17a5.77,5.77,0,0,0-.72,0H187.22c-.55,0-1.09,0-1.63-.08C185.13,91.41,186.19,89.93,186,88.35ZM332.27,245.66c-2,16.85-11.15,28.82-27.12,34.51s-30.58,2.51-42.72-9.26c-17.14-16.63-33.81-33.73-50.71-50.6A29.91,29.91,0,1,0,186.57,271a29.19,29.19,0,0,0,25-8.44c2.74-2.64,5.33-5.44,8.1-8.05a5.68,5.68,0,0,1,9.61,2.95,4.87,4.87,0,0,1-1.13,4.58c-5.07,5.17-9.79,10.73-16.06,14.59-25.26,15.57-58.4-.05-62.49-29.47A41.17,41.17,0,0,1,186,200.26c12.85-1.31,24.19,2.51,33.42,11.64,16.93,16.76,33.68,33.69,50.54,50.51a29.91,29.91,0,1,0,25.1-50.69,29.13,29.13,0,0,0-24.85,8.33c-2.66,2.55-5.21,5.22-7.83,7.81s-6.18,2.79-8.53.41-2.21-5.89.49-8.53c3.84-3.77,7.36-7.86,11.65-11.15,7.45-5.71,15.88-8.54,23.37-8.56C315.84,200.08,335.13,221.31,332.27,245.66Z"/><path class="cls-2" d="M96.38,441.48h-4V409.39h4Z"/><path class="cls-2" d="M128,441.48h-3.9l-16.6-28,0,2.11c.05.8.07,1.48.07,2v23.83h-3.25V409.39h5l15.51,26.15,0-2.23c0-.87,0-1.65,0-2.32v-21.6H128Z"/><path class="cls-2" d="M140.06,441.48h-4V409.39h19.65v3.53H140.06v10.13H153v3.25H140.06Z"/><path class="cls-2" d="M164.51,441.48h-4V409.39h4Z"/><path class="cls-2" d="M196.15,441.48h-3.91l-16.59-28,0,2.11c.05.8.07,1.48.07,2v23.83h-3.24V409.39h5l15.52,26.15,0-2.23c0-.87-.05-1.65-.05-2.32v-21.6h3.18Z"/><path class="cls-2" d="M208.18,441.48h-4V409.39h4Z"/><path class="cls-2" d="M225.88,441.48h-4V412.92h-9.19v-3.53H235.1v3.53h-9.22Z"/><path class="cls-2" d="M262.51,409.39,251.77,428v13.49h-4V428L237,409.39h4.76l8.51,14.75,8.57-14.75Z"/><path class="cls-2" d="M274.57,433l3.62-.83q2.19,6.57,9.47,6.56a8.81,8.81,0,0,0,5.74-1.61,5.38,5.38,0,0,0,1.93-4.33,4.11,4.11,0,0,0-1.47-3.3,8.14,8.14,0,0,0-3.4-1.73L284,426.18a16.62,16.62,0,0,1-4.08-1.54,7.61,7.61,0,0,1-2.69-2.79,8.42,8.42,0,0,1-1.1-4.31,7.74,7.74,0,0,1,3-6.41,12.14,12.14,0,0,1,7.78-2.39q8.75,0,11.5,7.92l-3.65,1.08a6.48,6.48,0,0,0-3-4.27,9.45,9.45,0,0,0-5-1.44,8.14,8.14,0,0,0-4.69,1.39,4.49,4.49,0,0,0-2.06,3.94q0,3.57,5.22,4.82l6,1.41q8.22,2,8.22,8.86a8.9,8.9,0,0,1-3.09,6.93q-3.09,2.76-8.71,2.76Q277.77,442.14,274.57,433Z"/><path class="cls-2" d="M328.43,441.48h-4V426.2H309.53v15.28h-4V409.39h4v13.29h14.88V409.39h4Z"/><path class="cls-2" d="M347.51,442.14a11.17,11.17,0,0,1-9.63-4.81,19.66,19.66,0,0,1-3.46-11.8q0-7.29,3.62-12a12.08,12.08,0,0,1,19.14-.08,18.75,18.75,0,0,1,3.59,11.77,20.42,20.42,0,0,1-3.49,11.89A11.19,11.19,0,0,1,347.51,442.14Zm.1-3.27a7.38,7.38,0,0,0,6.58-3.83,18.55,18.55,0,0,0,2.37-9.88q0-6.23-2.45-9.67a7.62,7.62,0,0,0-6.53-3.46,7.42,7.42,0,0,0-6.53,3.74,17.79,17.79,0,0,0-2.42,9.79,17.17,17.17,0,0,0,2.44,9.61A7.49,7.49,0,0,0,347.61,438.87Z"/><path class="cls-2" d="M370.83,441.48h-4V409.39h11.38c3.56,0,6.18,1,7.88,2.91a9.77,9.77,0,0,1,2.54,6.62,9.2,9.2,0,0,1-2.77,6.84,9.9,9.9,0,0,1-7.23,2.7h-7.78Zm0-16.36h7.39a6.29,6.29,0,0,0,4.58-1.7,6,6,0,0,0,1.74-4.5,6.55,6.55,0,0,0-1.55-4.28,5.47,5.47,0,0,0-4.49-1.88h-7.67Z"/></svg>