<svg id="群組_1_影像" data-name="群組 1 影像" xmlns="http://www.w3.org/2000/svg" xmlns:xlink="http://www.w3.org/1999/xlink" viewBox="0 0 380.52 461.2"><defs><style>.cls-1{fill:url(#未命名漸層_4);}</style><linearGradient id="未命名漸層_4" x1="240" y1="470.79" x2="240" y2="9.59" gradientUnits="userSpaceOnUse"><stop offset="0" stop-color="#65e6f0"/><stop offset="1" stop-color="#66a6ff"/></linearGradient></defs><path class="cls-1" d="M430.25,280.43q0-78.31,0-156.62c0-19.83-14.05-33.91-33.83-33.92-21.81,0-43.62,0-65.43,0-1.94,0-2.55-.61-2.66-2.4a55.33,55.33,0,0,0-1.45-8.47C316.72,32.69,269.87,2,223.35,11.23,185.1,18.84,156.73,49,151.69,87.53c-.26,2-1,2.41-2.9,2.4q-33.06-.11-66.12,0a32.5,32.5,0,0,0-32.91,33q0,157.44,0,314.87c0,18.71,14.35,33,33.07,33q157.16,0,314.33,0a33.77,33.77,0,0,0,7.16-.71,32.54,32.54,0,0,0,25.93-32.33Q430.28,359.09,430.25,280.43ZM170,83.81c.72-2.14.93-4.42,1.86-6.49,6.13-18,17.37-31.72,34-40.94a79.05,79.05,0,0,1,13.42-5.67,28.57,28.57,0,0,1,3-.84c6.55-1.05,13.09-2,19.78-1.79A68.17,68.17,0,0,1,264.8,32.6c.51.2,1.09,0,1.55.38a70.82,70.82,0,0,1,33.92,28.5,67.53,67.53,0,0,1,8.88,21.43q.48,2.75,1,5.48c.19,1.1-.21,1.62-1.36,1.5-.31,0-.62,0-.93,0H171.58c-.69,0-1.39-.06-2.08-.1C168.9,87.73,170.26,85.83,170,83.81ZM357.9,285.86c-2.55,21.64-14.33,37-34.84,44.33-20.35,7.26-39.28,3.23-54.87-11.89-22-21.36-43.42-43.33-65.14-65a38.42,38.42,0,1,0-32.3,65.1c12.42,1.54,23.12-2.16,32.1-10.84,3.51-3.4,6.84-7,10.41-10.34A7.29,7.29,0,0,1,225.6,301a6.27,6.27,0,0,1-1.46,5.89c-6.51,6.64-12.57,13.78-20.62,18.74-32.45,20-75-.06-80.27-37.86-4.16-29.85,16.93-57.17,46.81-60.22,16.5-1.69,31.07,3.23,42.92,14.95,21.75,21.52,43.26,43.28,64.92,64.88a38.41,38.41,0,1,0,32.24-65.12c-12.32-1.53-23,2.13-31.91,10.71-3.42,3.27-6.69,6.71-10.07,10s-7.94,3.58-11,.53-2.82-7.57.64-11c4.92-4.84,9.46-10.1,15-14.32,9.57-7.33,20.4-11,30-11C336.79,227.32,361.57,254.59,357.9,285.86Z" transform="translate(-49.74 -9.59)"/></svg>