<svg height="512" viewBox="0 0 512 512" width="512" xmlns="http://www.w3.org/2000/svg"><g id="Filled_outline" data-name="Filled outline"><path d="m177.706 24a25.705 25.705 0 0 1 25.447 22.07l36.847 257.93h-88v-254.294a25.706 25.706 0 0 1 25.706-25.706z" fill="#ab925b"/><path d="m372.133 44.664a25.706 25.706 0 0 0 -25.207-20.664h-1.22a25.706 25.706 0 0 0 -25.706 25.706v198.294l40 56h64z" fill="#ab925b"/><path d="m488 56h-456v32l33.708 1.438-41.708 54.562 24 8 57.587-61.187 382.413 21.187z" fill="#7a432a"/><circle cx="32" cy="72" fill="#9c5c3e" r="16"/><path d="m488 49.71v285.01a153.283 153.283 0 0 1 -250.35 118.63l-23.13-18.92-4.84-3.96a63.963 63.963 0 0 0 -40.53-14.47h-73.15v-112h120l51.87-259.34a25.7 25.7 0 0 1 25.2-20.66h1.22a25.709 25.709 0 0 1 25.71 25.71v198.29l-40 56h120l36.77-257.37c1.84-12.93 12.89-22.84 25.94-22.63a25.713 25.713 0 0 1 25.29 25.71z" fill="#ba9f63"/><path d="m488 303.34v31.38a153.283 153.283 0 0 1 -250.35 118.63l-23.13-18.92c100.65-14.11 199.83-52.68 273.48-131.09z" fill="#b3995f"/><path d="m168 360a55.993 55.993 0 0 1 -56 56h-32a56.016 56.016 0 0 1 -55.19-46.45 56.63 56.63 0 0 1 -.81-9.55 55.993 55.993 0 0 1 56-56h32a55.958 55.958 0 0 1 56 56z" fill="#e0e0de"/><path d="m96 352a16 16 0 0 1 16 16v16a0 0 0 0 1 0 0h-32a0 0 0 0 1 0 0v-16a16 16 0 0 1 16-16z" fill="#4d5e78"/><rect fill="#c7ae71" height="80" rx="28" width="56" x="152" y="24"/><rect fill="#c7ae71" height="80" rx="28" width="56" x="320" y="24"/><path d="m462.839 16c-.18 0-.357 0-.536 0-16.715 0-31.047 12.6-33.452 29.5l-.358 2.5h-44.721a35.972 35.972 0 0 0 -63.165-19.32 33.653 33.653 0 0 0 -26.317-12.68h-1.22a33.787 33.787 0 0 0 -33.044 27.09l-.982 4.91h-43.272a35.994 35.994 0 0 0 -71.544 0h-103.952-.138-.138a24.027 24.027 0 0 0 -24 24v.138s0 .092 0 .138a24.184 24.184 0 0 0 23.438 24.262l10.5.362-32.293 42.242a8 8 0 0 0 3.825 12.448l24 8a8 8 0 0 0 8.356-2.108l55.038-58.482 35.136 1.949v195.051h-64a64.067 64.067 0 0 0 -63.99 63.618v.053c0 .11-.008.219-.008.329s.009.245.009.369v.044a64.068 64.068 0 0 0 63.989 63.587h89.15a56.122 56.122 0 0 1 35.465 12.662l27.969 22.879a161.288 161.288 0 0 0 263.416-124.821v-285.01a33.868 33.868 0 0 0 -33.161-33.71zm-69.777 280h-28.945l-36.117-50.563v-134.291l49.821 2.76 24.066 120.322zm-73.062-34.236 24.455 34.236h-48.91zm88.686-75.125-14.365-71.818 24.432 1.353zm12.338-86.362-44.413-2.462a35.81 35.81 0 0 0 7.389-21.815v-12h42.207zm-73.024-68.277a20.023 20.023 0 0 1 20 20v24a20 20 0 0 1 -40 0v-24a20.023 20.023 0 0 1 20-20zm-116.686 154.641-11.645-81.495 27.639 1.531zm19.164-95.812-36.833-2.041a35.8 35.8 0 0 0 2.355-12.788v-12h39.844zm-90.478-38.829a20 20 0 0 1 40 0v24a20 20 0 0 1 -40 0zm-120 28a8.006 8.006 0 0 1 -7.993-7.862 8.278 8.278 0 0 1 8.131-8.131 8 8 0 0 1 -.138 15.993zm66.032 2.822a7.948 7.948 0 0 0 -6.268 2.5l-54.085 57.472-8.516-2.839 34.902-45.655a8 8 0 0 0 -6.079-12.854l-3.867-.133a23.969 23.969 0 0 0 .505-17.313h81.376v12a35.914 35.914 0 0 0 1.136 8.988zm53.968 23.095a35.9 35.9 0 0 0 42.356-1.731l1.022.056 18.509 129.534-12.446 62.224h-49.441zm-80 302.083a48.054 48.054 0 0 1 -47.83-44.127l15.83-11.873a40.249 40.249 0 0 1 24-8 8 8 0 0 0 0-16 56.358 56.358 0 0 0 -33.6 11.2l-2.507 1.88a48.069 48.069 0 0 1 44.107-29.08h32a48.066 48.066 0 0 1 44.107 29.08l-2.507-1.88a56.358 56.358 0 0 0 -33.6-11.2 8 8 0 0 0 0 16 40.249 40.249 0 0 1 24 8l15.83 11.873a48.054 48.054 0 0 1 -47.83 44.127zm400-330.65-30.418 40.874 12.836 9.552 17.582-23.626v29.2l-30.418 40.874 12.836 9.552 17.582-23.626v29.2l-30.418 40.874 12.836 9.552 17.582-23.626v118.57a145.283 145.283 0 0 1 -237.285 112.437l-27.966-22.877a72.16 72.16 0 0 0 -45.599-16.28h-14.886a63.848 63.848 0 0 0 21.726-47.587v-.044c0-.124.009-.245.009-.369s-.008-.219-.008-.329c0-.018 0-.035 0-.053a63.845 63.845 0 0 0 -21.727-47.618h61.736a8 8 0 0 0 7.845-6.431l51.87-259.341a17.743 17.743 0 0 1 17.355-14.228h1.22a17.73 17.73 0 0 1 17.71 17.71v27.64l-30.418 40.874 12.836 9.552 17.582-23.626v29.2l-30.418 40.874 12.836 9.552 17.582-23.626v29.2l-30.418 40.874 12.836 9.552 17.582-23.626v29.287l-38.388 53.742-31.859 39.821 12.494 10 29.6-37h116.153a8 8 0 0 0 7.919-6.868l36.771-257.375a18.071 18.071 0 0 1 17.61-15.757h.277a17.794 17.794 0 0 1 17.423 17.71z"/><path d="m142.311 373.268.844-1.69-14.31-7.156-.845 1.689a17.814 17.814 0 0 1 -8 8.009v-6.12a24 24 0 0 0 -48 0v6.12a17.814 17.814 0 0 1 -8-8.009l-.845-1.689-14.31 7.156.844 1.69a33.705 33.705 0 0 0 30.311 18.732h32a33.705 33.705 0 0 0 30.311-18.732zm-54.311 2.732v-8a8 8 0 0 1 16 0v8z"/><path d="m240 376h48v16h-48z"/><path d="m312 384h48v16h-48z"/><path d="m272 416h48v16h-48z"/><path d="m328 344h48v16h-48z"/><path d="m400 368h48v16h-48z"/><path d="m368 416h48v16h-48z"/></g></svg>